# Blender v2.78 (sub 0) OBJ File: 'MY_DIAMOND.blend'
# www.blender.org
mtllib my_diamond.mtl
o Cylinder_Cylinder.002
v 0.000000 -0.443148 -0.000000
v -0.000000 0.451747 -0.325703
v 0.191444 0.451747 -0.263499
v 0.309762 0.451747 -0.100648
v 0.309762 0.451747 0.100648
v 0.191444 0.451747 0.263499
v -0.000000 0.451747 0.325703
v -0.191444 0.451747 0.263499
v -0.309762 0.451747 0.100648
v -0.309762 0.451747 -0.100648
v -0.191443 0.451747 -0.263499
v -0.000000 0.168988 -0.502273
v 0.295229 0.168988 -0.406348
v 0.477690 0.168988 -0.155211
v 0.477690 0.168988 0.155211
v 0.295229 0.168988 0.406348
v -0.000000 0.168988 0.502273
v -0.295229 0.168988 0.406348
v -0.477690 0.168988 0.155211
v -0.477690 0.168988 -0.155211
v -0.295229 0.168988 -0.406348
vn 0.2657 0.5106 -0.8177
vn 0.6956 0.5106 -0.5054
vn 0.8598 0.5106 0.0000
vn 0.6956 0.5106 0.5054
vn 0.2657 0.5106 0.8177
vn -0.2657 0.5106 0.8177
vn -0.6956 0.5106 0.5054
vn -0.8598 0.5106 0.0000
vn 0.0000 1.0000 0.0000
vn -0.6956 0.5106 -0.5054
vn -0.2657 0.5106 -0.8177
vn -0.2436 -0.6152 -0.7498
vn -0.6378 -0.6152 -0.4634
vn -0.7884 -0.6152 0.0000
vn -0.6378 -0.6152 0.4634
vn -0.2436 -0.6152 0.7498
vn 0.2436 -0.6152 0.7498
vn 0.6378 -0.6152 0.4634
vn 0.7884 -0.6152 0.0000
vn 0.6378 -0.6152 -0.4634
vn 0.2436 -0.6152 -0.7498
usemtl Material.001
s off
f 12//1 2//1 3//1 13//1
f 13//2 3//2 4//2 14//2
f 14//3 4//3 5//3 15//3
f 15//4 5//4 6//4 16//4
f 16//5 6//5 7//5 17//5
f 17//6 7//6 8//6 18//6
f 18//7 8//7 9//7 19//7
f 19//8 9//8 10//8 20//8
f 3//9 2//9 11//9 10//9 9//9 8//9 7//9 6//9 5//9 4//9
f 20//10 10//10 11//10 21//10
f 21//11 11//11 2//11 12//11
f 1//12 21//12 12//12
f 1//13 20//13 21//13
f 1//14 19//14 20//14
f 1//15 18//15 19//15
f 1//16 17//16 18//16
f 1//17 16//17 17//17
f 1//18 15//18 16//18
f 1//19 14//19 15//19
f 1//20 13//20 14//20
f 1//21 12//21 13//21
